<?xml version="1.0" standalone="no"?>
<!DOCTYPE svg PUBLIC "-//W3C//DTD SVG 20010904//EN"
 "http://www.w3.org/TR/2001/REC-SVG-20010904/DTD/svg10.dtd">
<svg version="1.0" xmlns="http://www.w3.org/2000/svg"
 width="197.000000pt" height="225.000000pt" viewBox="0 0 197.000000 225.000000"
 preserveAspectRatio="xMidYMid meet">

<g transform="translate(0.000000,225.000000) scale(0.100000,-0.100000)"
fill="#000000" stroke="none">
<path d="M770 2226 c-167 -44 -288 -108 -403 -216 -308 -285 -374 -744 -160
-1109 47 -80 167 -209 247 -266 71 -50 159 -95 234 -120 29 -9 52 -19 50 -21
-8 -7 -197 25 -300 51 -57 15 -136 40 -176 56 -87 35 -157 38 -219 9 l-43 -19
0 -218 c0 -199 2 -220 20 -243 16 -21 26 -25 65 -23 36 1 51 -3 69 -22 48 -48
220 -58 290 -17 28 16 31 23 34 76 l3 59 57 -7 c223 -24 316 -28 512 -23 118
3 247 11 285 16 39 6 87 13 107 16 l37 5 3 -72 c3 -70 4 -73 36 -91 76 -45
254 -30 294 23 17 24 26 27 53 23 18 -3 42 0 53 6 43 23 47 52 42 281 l-5 214
-34 23 c-44 30 -96 29 -174 -2 -68 -27 -223 -65 -362 -89 -137 -24 -151 -20
-65 17 260 114 449 342 516 623 25 103 23 286 -4 397 -65 265 -234 476 -477
593 -189 92 -404 118 -585 70z m336 -17 c276 -48 506 -218 629 -464 70 -141
89 -223 88 -390 0 -122 -4 -151 -27 -228 -115 -384 -440 -628 -834 -627 -412
1 -761 294 -839 705 -20 106 -13 282 17 385 25 88 85 210 139 284 115 156 321
289 501 325 30 6 64 13 75 15 42 8 194 6 251 -5z m784 -1614 l30 -16 0 -149 0
-150 -26 10 c-43 17 -119 11 -272 -19 -295 -59 -614 -82 -862 -62 -206 17
-422 52 -530 88 -53 17 -110 11 -157 -18 l-33 -21 0 160 0 159 47 14 c50 14
91 6 213 -39 240 -90 643 -125 945 -82 39 6 86 12 105 15 113 16 344 71 389
92 77 35 110 39 151 18z m-1645 -344 c33 -10 93 -25 133 -32 55 -10 72 -17 72
-30 0 -12 -7 -15 -25 -11 -14 2 -23 7 -21 11 7 11 -108 11 -164 0 -30 -6 -72
-20 -93 -31 -52 -26 -101 -21 -105 10 -6 41 67 101 123 101 11 1 47 -8 80 -18z
m1654 -17 c23 -30 28 -88 9 -101 -18 -10 -52 -5 -125 18 -49 16 -81 20 -145
16 -46 -2 -93 -7 -105 -12 -21 -6 -23 -4 -23 23 0 30 0 30 88 46 48 9 101 20
117 25 17 5 60 10 97 10 61 1 68 -1 87 -25z m-1541 -99 c10 -10 -7 -17 -42
-18 -41 -1 -57 10 -36 24 14 9 67 5 78 -6z m-138 -9 c0 -8 10 -22 23 -32 22
-16 22 -16 -12 -10 -19 3 -41 11 -48 18 -13 10 -12 14 3 25 23 17 34 16 34 -1z
m221 4 c5 0 9 -4 9 -10 0 -12 -53 -40 -77 -40 -15 0 -14 2 5 16 12 8 22 22 22
31 0 10 6 13 16 9 9 -3 20 -6 25 -6z m1133 -41 l15 -31 -27 7 c-15 4 -33 12
-40 18 -11 9 -11 13 4 24 26 19 31 17 48 -18z m121 16 c0 -12 -50 -19 -71 -11
-9 3 -12 11 -9 16 8 14 80 9 80 -5z m80 2 c17 -13 17 -15 -6 -30 -37 -27 -49
-22 -36 13 13 34 16 35 42 17z"/>
<path d="M865 2099 c-90 -14 -154 -35 -246 -81 -67 -33 -103 -60 -175 -132
-77 -77 -98 -106 -137 -186 -79 -161 -103 -313 -74 -466 32 -169 103 -299 225
-415 90 -85 161 -130 259 -164 262 -91 554 -32 753 152 161 149 242 335 241
558 -1 398 -304 715 -706 739 -44 3 -107 1 -140 -5z m318 -54 c273 -89 456
-307 497 -593 19 -128 -3 -253 -73 -412 -27 -62 -57 -105 -119 -168 -150 -155
-308 -223 -518 -224 -197 -1 -361 66 -505 207 -67 66 -89 96 -128 175 -116
237 -113 468 8 687 73 130 235 268 375 319 143 51 326 55 463 9z"/>
<path d="M1000 1975 c0 -30 19 -55 44 -55 15 0 36 35 36 61 0 38 -15 37 -26
-2 -11 -39 -30 -38 -26 2 1 20 -2 29 -13 29 -10 0 -15 -10 -15 -35z"/>
<path d="M1101 1963 c-12 -44 3 -71 18 -32 l9 24 7 -27 c9 -34 31 -36 39 -4 3
13 9 31 12 40 4 10 1 16 -9 16 -9 0 -17 -8 -20 -17 -3 -14 -6 -12 -15 10 -16
37 -29 34 -41 -10z"/>
<path d="M733 1973 c-7 -2 -13 -11 -13 -20 0 -10 -6 -12 -21 -8 -19 6 -21 4
-15 -14 3 -11 9 -31 13 -43 l6 -22 -35 22 c-53 33 -61 30 -54 -23 6 -38 5 -45
-9 -45 -9 0 -19 9 -22 20 -7 26 -35 26 -58 0 -18 -20 -18 -21 10 -50 15 -16
32 -27 37 -24 6 4 5 11 -1 17 -18 18 -12 28 12 21 18 -4 31 2 52 25 16 16 32
28 37 25 10 -6 52 22 54 36 1 6 2 13 3 16 0 4 8 1 16 -6 11 -9 19 -10 26 -3 7
7 4 15 -11 26 -16 11 -20 21 -15 36 3 12 5 21 3 20 -2 0 -9 -3 -15 -6z m-173
-143 c0 -5 -4 -10 -10 -10 -5 0 -10 5 -10 10 0 6 5 10 10 10 6 0 10 -4 10 -10z"/>
<path d="M1201 1929 c-21 -60 -5 -70 22 -14 21 43 21 45 3 45 -8 0 -19 -14
-25 -31z"/>
<path d="M1248 1899 c-2 -26 1 -43 8 -46 13 -5 74 35 74 49 0 14 -22 9 -43 -9
-19 -18 -19 -17 -12 15 5 25 3 32 -8 32 -10 0 -16 -13 -19 -41z"/>
<path d="M1332 1857 c-28 -30 -28 -41 2 -60 27 -18 44 -10 18 9 -9 7 -14 16
-10 20 4 4 14 1 23 -6 18 -15 20 1 3 18 -9 9 -9 12 -1 12 7 0 15 -5 18 -10 4
-6 11 -8 16 -4 8 5 -30 44 -43 44 -3 0 -14 -10 -26 -23z"/>
<path d="M956 1838 c-3 -13 -9 -58 -13 -101 -4 -59 -9 -74 -16 -62 -5 10 -7
47 -4 84 6 62 5 64 -8 36 -8 -16 -14 -58 -15 -93 0 -71 -20 -79 -21 -9 0 33
-2 38 -9 22 -14 -32 -11 -72 5 -89 8 -8 12 -21 9 -29 -3 -8 -1 -18 5 -22 6 -3
11 -15 11 -25 0 -10 9 -25 21 -33 13 -10 16 -16 8 -19 -9 -3 -9 -19 1 -73 19
-98 20 -98 -187 -81 -24 2 -40 0 -37 -5 3 -5 40 -9 82 -9 42 0 84 -5 92 -10 8
-5 11 -10 5 -11 -33 -2 -179 3 -193 8 -15 4 -15 3 -2 -6 8 -6 52 -11 97 -11
45 0 84 -4 87 -9 5 -8 -116 -6 -181 3 -12 2 -20 -1 -17 -5 3 -5 33 -9 67 -9
90 0 128 -9 162 -37 l30 -24 -40 17 c-49 20 -59 22 -165 27 -49 3 -77 1 -65
-3 11 -5 53 -9 93 -9 75 -1 178 -33 166 -52 -3 -5 -23 0 -45 12 -25 12 -68 22
-112 25 -40 3 -87 7 -106 9 -18 2 -30 1 -26 -3 3 -4 48 -10 98 -13 68 -4 104
-12 137 -29 25 -13 40 -25 33 -27 -6 -2 -25 3 -41 11 -32 17 -68 23 -177 30
-44 3 -61 2 -45 -4 14 -4 53 -8 88 -9 61 -1 162 -33 162 -52 0 -4 24 -5 54 -2
39 4 67 1 96 -11 43 -17 103 -20 135 -6 13 6 4 7 -26 3 -33 -4 -64 1 -107 16
-37 12 -74 19 -94 16 -26 -4 -29 -3 -13 4 30 15 88 13 128 -4 41 -17 114 -20
137 -5 10 7 1 8 -31 4 -32 -4 -63 -1 -98 11 -29 9 -72 15 -96 13 -56 -4 -41
13 17 19 28 3 58 -1 82 -11 41 -17 122 -21 144 -7 8 5 -8 6 -37 3 -35 -3 -66
1 -97 13 -30 11 -61 16 -90 12 -60 -6 -47 9 14 17 34 4 60 2 85 -9 39 -16 142
-21 151 -7 3 5 -19 7 -49 4 -55 -4 -145 21 -145 40 0 6 8 7 18 3 57 -22 123
-33 157 -25 56 13 54 20 -4 13 -53 -6 -171 20 -171 39 0 12 20 10 76 -7 52
-16 117 -18 147 -6 10 3 -12 7 -50 6 -74 0 -149 19 -201 50 -29 17 -33 24 -27
50 3 17 8 48 11 70 l6 41 -48 15 c-30 9 -50 22 -52 32 -3 14 5 17 52 17 57 0
70 -12 44 -38 -9 -9 -9 -12 0 -12 7 0 15 14 19 30 3 17 10 33 14 36 25 15 1
24 -63 22 l-73 -2 68 -3 c78 -4 83 -23 6 -23 -58 0 -100 17 -78 31 8 5 41 9
75 9 33 0 67 6 76 13 20 16 30 45 18 52 -6 4 -10 -3 -10 -14 0 -12 -4 -21 -9
-21 -4 0 -9 25 -9 56 0 31 -6 61 -12 68 -10 8 -11 5 -6 -16 3 -16 2 -28 -3
-28 -5 0 -12 20 -15 45 -10 62 -26 67 -26 8 -1 -39 -3 -44 -11 -30 -6 11 -8
38 -4 68 7 51 2 66 -9 27z m68 -521 c24 -18 17 -48 -16 -66 -38 -21 -102 -5
-106 27 -2 13 2 30 8 38 16 18 90 19 114 1z"/>
<path d="M919 1305 c0 0 -2 -10 -5 -21 -3 -20 0 -22 54 -20 54 1 59 4 53 34 0
4 -24 7 -51 7 -28 0 -50 0 -51 0z"/>
<path d="M1397 1792 c-27 -28 -27 -53 0 -31 10 9 13 5 13 -20 0 -17 5 -31 10
-31 6 0 10 7 10 15 0 8 7 15 15 15 24 0 29 27 11 55 -21 32 -26 31 -59 -3z
m48 -12 c3 -5 1 -10 -4 -10 -6 0 -11 5 -11 10 0 6 2 10 4 10 3 0 8 -4 11 -10z"/>
<path d="M460 1765 c0 -22 28 -75 40 -75 5 0 10 10 12 23 2 12 9 22 17 22 31
0 19 22 -17 33 -50 15 -52 15 -52 -3z m40 -25 c0 -5 -2 -10 -4 -10 -3 0 -8 5
-11 10 -3 6 -1 10 4 10 6 0 11 -4 11 -10z"/>
<path d="M1477 1733 c-4 -3 -8 -20 -8 -37 -1 -24 -3 -26 -6 -8 -2 12 -9 22
-14 22 -15 0 -10 -36 6 -50 18 -15 45 -6 45 15 0 9 4 14 9 10 17 -10 20 11 5
33 -16 23 -26 27 -37 15z"/>
<path d="M406 1688 c-22 -30 -21 -33 16 -56 30 -19 33 -19 43 -4 26 38 25 51
-7 67 -38 19 -34 19 -52 -7z m24 -18 c0 -5 -2 -10 -4 -10 -3 0 -8 5 -11 10 -3
6 -1 10 4 10 6 0 11 -4 11 -10z m30 -10 c0 -5 -5 -10 -11 -10 -5 0 -7 5 -4 10
3 6 8 10 11 10 2 0 4 -4 4 -10z"/>
<path d="M1508 1644 c-29 -15 -37 -34 -15 -34 18 0 68 36 60 43 -9 9 -14 8
-45 -9z"/>
<path d="M363 1592 c-7 -16 46 -74 59 -66 5 3 7 13 3 21 -3 9 2 24 10 33 15
17 13 18 -26 22 -28 3 -43 0 -46 -10z"/>
<path d="M1556 1596 c4 -10 -5 -16 -25 -21 -17 -4 -31 -10 -31 -14 0 -16 13
-19 38 -10 18 7 27 6 33 -3 13 -21 21 -2 14 31 -4 17 -13 31 -20 31 -8 0 -12
-6 -9 -14z"/>
<path d="M330 1507 c0 -7 5 -18 12 -25 9 -9 8 -12 -6 -12 -30 0 -11 -24 25
-32 36 -7 65 7 36 18 -21 8 -22 24 -3 24 8 0 17 7 20 16 5 14 1 15 -29 10 -22
-4 -35 -3 -35 4 0 5 -4 10 -10 10 -5 0 -10 -6 -10 -13z"/>
<path d="M1563 1496 c-37 -24 -41 -36 -12 -36 11 0 29 -5 41 -11 26 -14 33 -6
12 15 -12 13 -13 20 -5 30 20 23 -2 24 -36 2z"/>
<path d="M1261 1216 c-55 -86 -102 -148 -114 -152 -24 -8 -107 -7 -115 1 -3 3
19 5 49 5 30 0 60 4 67 9 7 4 -11 6 -42 3 -38 -3 -71 1 -105 14 -44 15 -56 16
-104 5 -47 -12 -57 -11 -87 4 -21 11 -73 20 -137 26 -57 4 -108 11 -113 14 -6
3 -10 2 -10 -3 0 -11 71 -22 139 -22 72 0 167 -33 133 -47 -6 -2 -9 -10 -6
-15 4 -7 2 -8 -5 -4 -6 4 -9 11 -7 15 11 18 -67 41 -137 41 -40 0 -87 4 -105
9 -17 5 -32 6 -32 2 0 -11 62 -21 140 -21 36 -1 78 -8 95 -16 17 -8 21 -11 10
-7 -11 3 -80 8 -152 11 -73 2 -133 6 -133 9 0 3 15 24 32 47 18 22 25 35 16
28 -23 -18 -121 -162 -115 -168 3 -3 82 -5 175 -5 108 1 173 -2 177 -9 10 -16
466 -13 489 3 37 27 194 333 178 349 -5 5 -27 12 -48 14 l-39 5 -94 -145z
m-298 -123 c-7 -2 -21 -2 -30 0 -10 3 -4 5 12 5 17 0 24 -2 18 -5z"/>
<path d="M1170 1335 c53 -21 150 -17 150 6 0 4 -14 3 -31 -3 -23 -8 -45 -8
-81 1 -65 15 -82 13 -38 -4z"/>
<path d="M1060 1329 c0 -6 8 -8 19 -4 10 3 38 -1 62 -10 47 -16 136 -20 157
-6 7 4 -11 6 -42 3 -35 -3 -71 1 -102 12 -55 18 -94 21 -94 5z"/>
<path d="M610 1295 c13 -15 12 -19 -9 -36 -13 -11 -22 -22 -19 -24 2 -3 16 8
31 23 l26 28 -22 13 c-21 13 -21 13 -7 -4z"/>
<path d="M559 1203 c-13 -16 -12 -17 4 -4 9 7 17 15 17 17 0 8 -8 3 -21 -13z"/>
<path d="M610 1180 c14 -4 58 -8 98 -9 78 -1 182 -35 164 -53 -6 -6 -24 -2
-48 10 -26 13 -74 23 -146 29 -58 4 -104 5 -102 2 2 -4 48 -10 102 -14 57 -4
114 -15 139 -25 38 -17 46 -17 90 -4 44 13 53 13 115 -7 66 -20 140 -20 153 0
2 5 -15 4 -39 -2 -36 -8 -54 -6 -109 12 -43 15 -77 20 -96 16 -20 -4 -42 0
-70 15 -42 21 -72 26 -201 34 -46 3 -65 1 -50 -4z"/>
<path d="M742 881 c-16 -10 -5 -41 14 -41 15 0 20 35 6 44 -4 2 -14 1 -20 -3z"/>
<path d="M790 864 c0 -26 10 -30 27 -13 8 8 13 8 17 0 11 -17 44 -13 49 7 4
16 5 16 6 0 0 -10 5 -18 10 -18 5 0 12 8 14 18 4 16 5 16 6 0 1 -14 10 -18 46
-18 41 0 45 2 45 25 l0 25 -110 -1 c-109 -1 -110 -1 -110 -25z"/>
<path d="M1033 863 c0 -19 5 -23 27 -23 16 0 31 6 33 13 4 10 6 10 6 0 2 -23
21 -14 21 10 0 19 -5 22 -44 23 -39 1 -43 -1 -43 -23z"/>
<path d="M1130 865 c0 -18 5 -25 20 -25 15 0 20 7 20 25 0 18 -5 25 -20 25
-15 0 -20 -7 -20 -25z"/>
<path d="M201 493 c-11 -23 -10 -29 5 -40 20 -15 82 -28 91 -19 3 3 12 -2 19
-12 11 -14 16 -15 33 -4 17 10 21 10 21 -2 0 -18 21 -26 59 -21 17 2 31 0 31
-5 0 -6 5 -10 11 -10 8 0 9 11 5 32 -8 42 -15 47 -32 24 -24 -34 -75 -30 -54
4 7 11 11 11 24 1 13 -11 16 -11 16 2 0 20 -29 30 -45 17 -10 -8 -14 -6 -18 7
-3 14 -6 12 -11 -9 -11 -38 -29 -36 -21 2 4 19 3 30 -4 30 -6 0 -11 -6 -11
-12 0 -9 -3 -9 -9 1 -8 12 -72 40 -92 41 -3 0 -11 -12 -18 -27z m53 -2 c4 -5
-3 -7 -14 -4 -23 6 -26 13 -6 13 8 0 17 -4 20 -9z m-4 -33 c0 -5 -9 -4 -20 2
-11 6 -20 12 -20 14 0 2 9 2 20 -1 11 -3 20 -9 20 -15z m40 7 c0 -8 -4 -15
-10 -15 -5 0 -10 7 -10 15 0 8 5 15 10 15 6 0 10 -7 10 -15z"/>
<path d="M1713 510 c-13 -5 -23 -17 -23 -27 -1 -17 -2 -17 -13 -1 -11 14 -20
15 -53 7 -21 -6 -48 -12 -59 -14 -11 -2 -20 -4 -20 -5 0 -2 -16 -5 -82 -16
-24 -4 -43 -10 -43 -15 0 -5 -7 -6 -15 -3 -8 4 -23 3 -32 -1 -10 -4 -40 -9
-68 -11 -58 -6 -97 -10 -107 -12 -10 -2 -10 -34 -2 -56 3 -9 10 -13 15 -10 5
3 7 9 4 14 -3 4 4 10 15 13 13 3 20 0 20 -9 0 -26 80 -12 81 15 0 10 2 11 6 4
9 -23 103 -12 103 12 0 7 9 15 20 18 13 3 20 0 20 -9 0 -8 10 -14 25 -14 28 0
35 20 8 21 -11 0 -13 3 -5 6 19 7 14 26 -5 19 -15 -5 -14 -3 2 9 19 15 20 14
28 -15 6 -25 13 -31 30 -28 12 2 23 12 26 23 3 17 1 18 -14 5 -14 -12 -18 -12
-25 0 -11 18 -2 33 15 26 7 -2 17 0 23 6 8 8 13 3 18 -16 3 -14 10 -26 15 -26
5 0 7 11 3 25 -3 14 -2 25 4 25 5 0 13 -11 16 -25 4 -14 11 -23 16 -20 6 3 6
16 0 33 l-10 27 21 -28 c23 -30 39 -28 39 6 1 22 1 22 12 2 6 -11 12 -21 14
-23 5 -7 44 19 44 29 0 6 -7 6 -20 -1 -14 -7 -20 -7 -20 0 0 5 5 10 10 10 6 0
10 4 10 10 0 5 -8 7 -17 3 -15 -5 -14 -3 2 10 23 19 6 22 -32 7z m-416 -106
c-3 -3 -12 -4 -19 -1 -8 3 -5 6 6 6 11 1 17 -2 13 -5z m73 -10 c0 -8 -5 -12
-10 -9 -6 4 -8 11 -5 16 9 14 15 11 15 -7z m-67 -21 c-7 -2 -19 -2 -25 0 -7 3
-2 5 12 5 14 0 19 -2 13 -5z"/>
<path d="M484 434 c3 -9 6 -27 6 -40 0 -14 4 -22 10 -19 6 3 10 15 10 26 0 10
5 19 11 19 7 0 9 -10 5 -26 -5 -19 -3 -25 6 -21 7 2 21 -2 30 -11 14 -12 20
-12 33 -2 10 8 15 9 15 1 0 -6 5 -11 10 -11 6 0 10 8 10 18 1 16 1 16 11 0 15
-27 26 -22 31 13 4 25 2 30 -13 26 -10 -3 -20 0 -23 7 -3 8 -7 7 -14 -2 -7
-11 -10 -11 -15 2 -4 10 -17 16 -34 15 -16 -1 -41 3 -56 10 -37 14 -40 14 -33
-5z m110 -33 c7 -10 -18 -34 -27 -25 -7 8 3 34 13 34 5 0 11 -4 14 -9z"/>
<path d="M700 377 c0 -26 4 -33 20 -34 11 -1 20 4 20 10 0 7 5 4 11 -7 9 -15
13 -16 20 -5 12 19 11 59 -1 59 -5 0 -10 -6 -10 -12 0 -7 -5 -5 -11 5 -5 9
-19 17 -29 17 -16 0 -20 -7 -20 -33z"/>
<path d="M1127 403 c-4 -6 -4 -19 0 -29 4 -12 3 -15 -5 -10 -7 4 -12 14 -12
22 0 8 -7 14 -15 14 -8 0 -15 -7 -15 -15 0 -15 -38 -40 -47 -31 -3 3 -2 13 1
23 6 14 9 15 15 4 6 -8 11 -9 15 -3 9 15 -5 21 -42 20 -28 -1 -32 -4 -32 -29
0 -21 -4 -27 -15 -23 -8 4 -15 17 -15 30 0 30 -17 31 -23 2 -4 -23 -4 -23 -6
-1 -1 20 -6 21 -63 20 l-63 -2 -3 -32 -3 -32 141 1 c77 1 143 4 145 8 3 4 26
5 51 2 34 -3 45 -2 40 7 -4 6 -13 11 -21 11 -7 0 -15 12 -17 28 -2 16 -6 22
-11 15z"/>
</g>
</svg>
